<mxfile host="app.diagrams.net" modified="2020-09-28T06:32:27.984Z" agent="5.0 (Windows NT 10.0; Win64; x64) AppleWebKit/537.36 (KHTML, like Gecko) Chrome/85.0.4183.121 Safari/537.36" etag="ARyAKc2E3m4QzJbrJV0Z" version="13.7.5" type="github">
  <diagram id="yApILhVVp_aIR9QvY-9A" name="Page-1">
    <mxGraphModel dx="1038" dy="580" grid="1" gridSize="10" guides="1" tooltips="1" connect="1" arrows="1" fold="1" page="1" pageScale="1" pageWidth="827" pageHeight="1169" math="0" shadow="0">
      <root>
        <mxCell id="0" />
        <mxCell id="1" parent="0" />
        <mxCell id="sVUxzUDLAn8-urgQVrGT-3" value="" style="rounded=0;whiteSpace=wrap;html=1;" vertex="1" parent="1">
          <mxGeometry x="120" y="70" width="570" height="860" as="geometry" />
        </mxCell>
        <mxCell id="sVUxzUDLAn8-urgQVrGT-5" value="Ylläpitäjä" style="shape=umlActor;verticalLabelPosition=bottom;verticalAlign=top;html=1;outlineConnect=0;" vertex="1" parent="1">
          <mxGeometry x="30" y="687.5" width="60" height="115" as="geometry" />
        </mxCell>
        <mxCell id="sVUxzUDLAn8-urgQVrGT-6" value="Käyttäjä" style="shape=umlActor;verticalLabelPosition=bottom;verticalAlign=top;html=1;outlineConnect=0;" vertex="1" parent="1">
          <mxGeometry x="30" y="250" width="60" height="115" as="geometry" />
        </mxCell>
        <mxCell id="sVUxzUDLAn8-urgQVrGT-12" value="&lt;font style=&quot;font-size: 21px&quot;&gt;Kuvagalleria&lt;/font&gt;" style="text;html=1;strokeColor=none;fillColor=none;align=center;verticalAlign=middle;whiteSpace=wrap;rounded=0;" vertex="1" parent="1">
          <mxGeometry x="327" y="70" width="156" height="70" as="geometry" />
        </mxCell>
        <mxCell id="sVUxzUDLAn8-urgQVrGT-13" value="Tietokanta" style="ellipse;whiteSpace=wrap;html=1;" vertex="1" parent="1">
          <mxGeometry x="335" y="810" width="140" height="90" as="geometry" />
        </mxCell>
        <mxCell id="sVUxzUDLAn8-urgQVrGT-15" value="Kuvien poistaminen" style="ellipse;whiteSpace=wrap;html=1;" vertex="1" parent="1">
          <mxGeometry x="335" y="700" width="140" height="90" as="geometry" />
        </mxCell>
        <mxCell id="sVUxzUDLAn8-urgQVrGT-16" value="Kuvien hyväksyminen" style="ellipse;whiteSpace=wrap;html=1;" vertex="1" parent="1">
          <mxGeometry x="335" y="585" width="140" height="90" as="geometry" />
        </mxCell>
        <mxCell id="sVUxzUDLAn8-urgQVrGT-17" value="Kuvien lisäys" style="ellipse;whiteSpace=wrap;html=1;" vertex="1" parent="1">
          <mxGeometry x="335" y="140" width="140" height="90" as="geometry" />
        </mxCell>
        <mxCell id="sVUxzUDLAn8-urgQVrGT-18" value="Kuvien katselu" style="ellipse;whiteSpace=wrap;html=1;" vertex="1" parent="1">
          <mxGeometry x="335" y="250" width="140" height="90" as="geometry" />
        </mxCell>
        <mxCell id="sVUxzUDLAn8-urgQVrGT-19" value="Kirjautuminen" style="ellipse;whiteSpace=wrap;html=1;" vertex="1" parent="1">
          <mxGeometry x="335" y="365" width="140" height="90" as="geometry" />
        </mxCell>
        <mxCell id="sVUxzUDLAn8-urgQVrGT-20" value="Rekisteröityminen" style="ellipse;whiteSpace=wrap;html=1;" vertex="1" parent="1">
          <mxGeometry x="335" y="470" width="140" height="90" as="geometry" />
        </mxCell>
        <mxCell id="sVUxzUDLAn8-urgQVrGT-21" value="" style="endArrow=none;html=1;exitX=1;exitY=1;exitDx=0;exitDy=0;exitPerimeter=0;entryX=0;entryY=0.5;entryDx=0;entryDy=0;" edge="1" parent="1" source="sVUxzUDLAn8-urgQVrGT-6" target="sVUxzUDLAn8-urgQVrGT-17">
          <mxGeometry width="50" height="50" relative="1" as="geometry">
            <mxPoint x="90" y="410" as="sourcePoint" />
            <mxPoint x="100" y="400" as="targetPoint" />
          </mxGeometry>
        </mxCell>
        <mxCell id="sVUxzUDLAn8-urgQVrGT-22" value="" style="endArrow=none;html=1;exitX=1;exitY=1;exitDx=0;exitDy=0;exitPerimeter=0;entryX=0;entryY=0.5;entryDx=0;entryDy=0;" edge="1" parent="1" source="sVUxzUDLAn8-urgQVrGT-5" target="sVUxzUDLAn8-urgQVrGT-13">
          <mxGeometry width="50" height="50" relative="1" as="geometry">
            <mxPoint x="10" y="540" as="sourcePoint" />
            <mxPoint x="60" y="490" as="targetPoint" />
          </mxGeometry>
        </mxCell>
        <mxCell id="sVUxzUDLAn8-urgQVrGT-23" value="" style="endArrow=none;html=1;exitX=1;exitY=1;exitDx=0;exitDy=0;exitPerimeter=0;entryX=0;entryY=0.5;entryDx=0;entryDy=0;" edge="1" parent="1" source="sVUxzUDLAn8-urgQVrGT-5" target="sVUxzUDLAn8-urgQVrGT-15">
          <mxGeometry width="50" height="50" relative="1" as="geometry">
            <mxPoint x="60" y="670" as="sourcePoint" />
            <mxPoint x="110" y="620" as="targetPoint" />
          </mxGeometry>
        </mxCell>
        <mxCell id="sVUxzUDLAn8-urgQVrGT-24" value="" style="endArrow=none;html=1;exitX=1;exitY=1;exitDx=0;exitDy=0;exitPerimeter=0;entryX=0;entryY=0.5;entryDx=0;entryDy=0;" edge="1" parent="1" source="sVUxzUDLAn8-urgQVrGT-5" target="sVUxzUDLAn8-urgQVrGT-16">
          <mxGeometry width="50" height="50" relative="1" as="geometry">
            <mxPoint x="60" y="670" as="sourcePoint" />
            <mxPoint x="110" y="620" as="targetPoint" />
          </mxGeometry>
        </mxCell>
        <mxCell id="sVUxzUDLAn8-urgQVrGT-25" value="" style="endArrow=none;html=1;exitX=0;exitY=0.5;exitDx=0;exitDy=0;entryX=1;entryY=1;entryDx=0;entryDy=0;entryPerimeter=0;" edge="1" parent="1" source="sVUxzUDLAn8-urgQVrGT-18" target="sVUxzUDLAn8-urgQVrGT-6">
          <mxGeometry width="50" height="50" relative="1" as="geometry">
            <mxPoint x="40" y="490" as="sourcePoint" />
            <mxPoint x="90" y="370" as="targetPoint" />
          </mxGeometry>
        </mxCell>
        <mxCell id="sVUxzUDLAn8-urgQVrGT-26" value="" style="endArrow=none;html=1;exitX=0.5;exitY=0;exitDx=0;exitDy=0;entryX=0.5;entryY=1;entryDx=0;entryDy=0;" edge="1" parent="1" source="sVUxzUDLAn8-urgQVrGT-20" target="sVUxzUDLAn8-urgQVrGT-19">
          <mxGeometry width="50" height="50" relative="1" as="geometry">
            <mxPoint x="400" y="500" as="sourcePoint" />
            <mxPoint x="450" y="450" as="targetPoint" />
          </mxGeometry>
        </mxCell>
        <mxCell id="sVUxzUDLAn8-urgQVrGT-27" value="" style="endArrow=none;html=1;exitX=1;exitY=1;exitDx=0;exitDy=0;exitPerimeter=0;entryX=0;entryY=0.5;entryDx=0;entryDy=0;" edge="1" parent="1" source="sVUxzUDLAn8-urgQVrGT-6" target="sVUxzUDLAn8-urgQVrGT-19">
          <mxGeometry width="50" height="50" relative="1" as="geometry">
            <mxPoint x="70" y="470" as="sourcePoint" />
            <mxPoint x="120" y="420" as="targetPoint" />
          </mxGeometry>
        </mxCell>
        <mxCell id="sVUxzUDLAn8-urgQVrGT-29" value="" style="endArrow=none;html=1;exitX=1;exitY=1;exitDx=0;exitDy=0;exitPerimeter=0;entryX=0;entryY=1;entryDx=0;entryDy=0;" edge="1" parent="1" source="sVUxzUDLAn8-urgQVrGT-5" target="sVUxzUDLAn8-urgQVrGT-19">
          <mxGeometry width="50" height="50" relative="1" as="geometry">
            <mxPoint x="80" y="690" as="sourcePoint" />
            <mxPoint x="130" y="640" as="targetPoint" />
          </mxGeometry>
        </mxCell>
      </root>
    </mxGraphModel>
  </diagram>
</mxfile>
